<svg xmlns="http://www.w3.org/2000/svg" xmlns:xlink="http://www.w3.org/1999/xlink" xml:space="preserve" version="1.1" style="shape-rendering:geometricPrecision; text-rendering:geometricPrecision; image-rendering:optimizeQuality; fill-rule:evenodd; clip-rule:evenodd" viewBox="2166 2404 16308 3246">
 <defs>
  <!-- <style type="text/css">
   <![CDATA[
    .fil0 {fill:black}
   ]]>
  </style> -->
 </defs>
 <g id="Livello_x0020_1">
  <metadata id="CorelCorpID_0Corel-Layer"/>
  <g id="_483422480">
   <path fill="black" class="fil0" d="M2506 3978c0,18 1,67 14,80 11,13 67,15 82,15l172 0c24,0 59,-2 81,-10 19,-8 37,-22 52,-36l0 -1c17,-15 33,-35 47,-53 24,-31 47,-65 69,-98l6 -9 76 5 -145 313 -794 0 0 -80 36 0c30,0 68,-4 90,-26 22,-22 26,-61 26,-91l0 -827c0,-30 -4,-70 -26,-93 -22,-22 -60,-26 -90,-26l-36 0 0 -80 531 0 0 82 -21 -2c-6,-1 -11,-1 -17,-2 -9,0 -18,0 -27,0 -31,0 -75,4 -98,27 -23,23 -28,63 -28,94l0 818zm970 -909l0 430 202 0c28,0 104,-1 126,-24 21,-22 30,-72 33,-101l2 -17 67 0 0 402 -71 0 -1 -17c-3,-29 -9,-89 -29,-112 -19,-22 -101,-23 -127,-23l-202 0 0 332c0,30 2,90 25,112 24,23 88,25 119,25l142 0c47,0 112,-6 147,-39 38,-36 56,-110 65,-158l3 -16 72 0 -28 321 -940 0 0 -80 51 0c36,0 96,-3 125,-26 26,-22 31,-65 31,-96l0 -822c0,-30 -4,-70 -26,-93 -22,-22 -60,-26 -90,-26l-37 0 0 -80 843 0 14 307 -77 0 -2 -17c-5,-41 -17,-119 -48,-149 -30,-31 -123,-33 -163,-33l-226 0zm1153 -37c-5,2 -10,3 -14,3 -6,0 -11,-1 -16,-4 -6,-5 -10,-11 -10,-18l0 -59 488 0c105,0 230,13 320,71 77,50 114,123 114,215 0,64 -20,121 -63,169 -35,38 -80,65 -128,84 64,27 127,64 172,116 52,59 73,131 73,210 0,61 -14,119 -43,172 -30,54 -71,97 -123,129 -41,25 -89,40 -136,49 -30,6 -62,9 -93,11 -40,3 -80,4 -120,4l-461 0 0 -80 37 0c29,0 67,-4 89,-26 22,-22 27,-62 27,-92l0 -826c0,-32 -5,-73 -28,-98 -22,-24 -55,-30 -85,-30zm1682 630l-323 0 -114 332c-4,13 -7,25 -10,38 -2,8 -3,17 -4,25 0,16 5,29 18,38 18,13 49,15 70,15 16,0 33,-2 49,-4l1 0 1 0c1,0 3,0 5,0l19 0 0 78 -431 0 0 -77 19 -1c28,0 65,-4 88,-20 26,-19 50,-86 60,-116l309 -909c4,-13 9,-26 12,-39 2,-9 4,-18 4,-27 0,-5 -1,-10 -2,-14 -2,-6 -3,-12 -6,-17l-13 -27 193 0 344 1025c11,30 36,99 60,122 18,17 42,22 67,22l36 0 0 78 -505 0 3 -78 19 0c1,0 3,0 5,0l0 0 1 0c18,2 37,4 54,4 23,0 59,-2 79,-14 14,-8 18,-21 18,-37 0,-6 -2,-16 -4,-23 -3,-14 -7,-28 -11,-41l-111 -333zm803 32l0 293c0,29 4,68 26,91 21,22 56,26 85,26l42 0 0 80 -493 0 0 -80 36 0c30,0 68,-4 90,-26 22,-22 26,-61 26,-91l0 -827c0,-30 -4,-69 -26,-92 -22,-23 -60,-27 -90,-27l-36 0 0 -80 385 0c129,0 291,15 401,89 97,64 137,160 137,275 0,71 -18,138 -61,195 -40,53 -95,90 -156,116l92 162c30,52 61,104 93,155 23,34 47,70 74,101 25,30 67,73 107,79l18 3 -6 73 -41 0c-56,0 -109,-13 -158,-39 -52,-27 -95,-66 -130,-113 -50,-66 -93,-139 -132,-213 -17,-33 -34,-66 -53,-98 -8,-15 -17,-32 -27,-46 -2,-2 -5,-4 -8,-5 -8,-2 -17,-3 -25,-3 -19,0 -39,1 -58,2 -24,1 -49,2 -74,2 -10,0 -19,-1 -29,-1 -3,0 -6,-1 -9,-1zm836 -662c-4,2 -9,3 -14,3 -5,0 -10,-1 -15,-4 -6,-5 -10,-11 -10,-18l0 -59 488 0c104,0 229,13 319,71 78,50 114,123 114,215 0,64 -19,121 -63,169 -35,38 -80,65 -127,84 64,27 127,64 172,116 51,59 73,131 73,210 0,61 -14,119 -44,172 -29,54 -71,97 -123,129 -41,25 -88,40 -135,49 -31,6 -62,9 -93,11 -40,3 -80,4 -121,4l-460 0 0 -80 36 0c30,0 68,-4 90,-26 22,-22 26,-62 26,-92l0 -826c0,-32 -5,-73 -28,-98 -21,-24 -54,-30 -85,-30zm1401 955c0,30 4,68 26,91 22,22 60,26 90,26l38 0 0 80 -493 0 0 -80 37 0c29,0 68,-4 89,-26 22,-22 27,-61 27,-91l0 -827c0,-30 -5,-70 -27,-93 -22,-22 -60,-26 -89,-26l-37 0 0 -80 491 0 0 80 -36 0c-30,0 -68,4 -90,26 -22,23 -26,63 -26,93l0 827zm595 -918l0 430 203 0c28,0 104,-1 126,-24 21,-22 30,-72 33,-101l2 -17 67 0 0 402 -71 0 -1 -17c-3,-29 -10,-89 -29,-112 -19,-22 -102,-23 -127,-23l-203 0 0 332c0,30 3,90 26,112 23,23 88,25 118,25l143 0c46,0 111,-6 147,-39 38,-36 56,-110 65,-158l3 -16 72 0 -28 321 -941 0 0 -80 52 0c36,0 96,-3 125,-26 26,-22 31,-65 31,-96l0 -822c0,-30 -4,-70 -27,-93 -21,-22 -59,-26 -89,-26l-37 0 0 -80 842 0 15 307 -78 0 -2 -17c-4,-41 -16,-119 -47,-149 -31,-31 -123,-33 -163,-33l-227 0zm1384 567l92 162c30,52 60,104 93,155 23,34 47,70 74,101 25,30 66,73 107,79l18 3 -7 73 -40 0c-56,0 -109,-13 -158,-39 -52,-27 -95,-66 -130,-113 -50,-66 -93,-139 -132,-213 -17,-33 -35,-66 -53,-98 -8,-15 -17,-32 -27,-46 -2,-2 -5,-4 -9,-5 -7,-2 -16,-3 -24,-3 -20,0 -39,1 -58,2 -25,1 -49,2 -74,2 -10,0 -20,-1 -29,-1 -3,0 -6,-1 -9,-1l0 293c0,29 4,68 26,91 20,22 56,26 84,26l42 0 0 80 -493 0 0 -80 37 0c29,0 68,-4 90,-26 22,-22 26,-61 26,-91l0 -827c0,-30 -4,-69 -27,-92 -22,-23 -59,-27 -89,-27l-37 0 0 -80 385 0c130,0 292,15 402,89 97,64 137,160 137,275 0,71 -18,138 -61,195 -40,53 -95,90 -156,116zm867 548l0 -78 36 0c30,0 68,-4 90,-26 22,-23 26,-63 26,-94l0 -826c0,-30 -4,-70 -26,-93 -22,-22 -60,-27 -90,-27l-36 0 0 -77 18 -1c103,-6 207,-11 310,-15 50,-3 101,-5 151,-5 58,0 117,2 175,7 46,5 92,11 137,22 76,19 146,50 207,98 71,54 124,123 161,203 39,85 56,176 56,270 0,94 -17,186 -56,272 -39,85 -95,158 -166,218 -63,53 -134,92 -212,116 -93,29 -199,36 -295,36l-486 0zm1676 -1115l0 430 202 0c29,0 105,-1 126,-24 22,-22 30,-72 34,-101l1 -17 67 0 0 402 -70 0 -2 -17c-2,-29 -9,-89 -29,-112 -18,-22 -101,-23 -127,-23l-202 0 0 332c0,30 2,90 25,112 24,23 89,25 119,25l142 0c47,0 112,-6 148,-39 37,-36 55,-110 64,-158l3 -16 72 0 -27 321 -941 0 0 -80 52 0c35,0 95,-3 124,-26 27,-22 31,-65 31,-96l0 -822c0,-30 -4,-70 -26,-93 -22,-22 -60,-26 -89,-26l-37 0 0 -80 842 0 14 307 -77 0 -2 -17c-5,-41 -16,-119 -47,-149 -31,-31 -123,-33 -163,-33l-227 0zm1820 567l92 162c30,52 60,104 93,155 23,34 47,70 74,101 25,30 66,73 107,79l18 3 -7 73 -40 0c-56,0 -109,-13 -158,-39 -52,-27 -95,-66 -130,-113 -51,-66 -93,-139 -132,-213 -17,-33 -35,-66 -53,-98 -8,-15 -17,-32 -27,-46 -2,-2 -5,-4 -9,-5 -8,-2 -16,-3 -25,-3 -19,0 -38,1 -57,2 -25,1 -50,2 -74,2 -10,0 -20,-1 -30,-1 -2,0 -5,-1 -8,-1l0 293c0,29 4,68 25,91 21,22 57,26 85,26l42 0 0 80 -493 0 0 -80 37 0c29,0 68,-4 90,-26 22,-22 26,-61 26,-91l0 -827c0,-30 -4,-69 -27,-92 -22,-23 -59,-27 -89,-27l-37 0 0 -80 385 0c129,0 291,15 402,89 97,64 137,160 137,275 0,71 -18,138 -61,195 -40,53 -96,90 -156,116zm918 -675l0 80 -37 0c-30,0 -67,4 -89,27 -22,22 -26,62 -26,92l0 500c0,56 2,122 15,176 10,40 26,76 50,109 31,44 73,75 122,97 55,24 116,34 176,34 64,0 128,-10 187,-36 49,-22 93,-53 124,-98 23,-33 36,-71 44,-110 6,-27 9,-56 11,-83 2,-39 3,-79 3,-118l0 -471c0,-30 -4,-70 -26,-93 -22,-22 -60,-26 -90,-26l-36 0 0 -80 425 0 0 80 -37 0c-29,0 -67,4 -89,26 -22,23 -27,63 -27,93l0 500c0,144 -24,309 -127,417 -102,107 -257,135 -399,135 -141,0 -285,-31 -384,-138 -101,-110 -127,-270 -127,-414l0 -500c0,-30 -4,-70 -26,-93 -22,-22 -60,-26 -89,-26l-37 0 0 -80 489 0zm1290 108l0 430 202 0c29,0 104,-1 126,-24 22,-22 30,-72 33,-101l2 -17 67 0 0 402 -71 0 -1 -17c-3,-29 -9,-89 -29,-112 -19,-22 -101,-23 -127,-23l-202 0 0 332c0,30 2,90 25,112 24,23 88,25 119,25l142 0c47,0 112,-6 148,-39 37,-36 55,-110 64,-158l3 -16 72 0 -28 321 -940 0 0 -80 51 0c36,0 96,-3 125,-26 26,-22 31,-65 31,-96l0 -822c0,-30 -4,-70 -26,-93 -22,-22 -60,-26 -90,-26l-37 0 0 -80 843 0 14 307 -77 0 -2 -17c-5,-41 -17,-119 -48,-149 -30,-31 -123,-33 -163,-33l-226 0zm-12972 476l0 346c0,45 3,126 33,162 27,33 82,39 122,39 77,0 146,-22 201,-77 56,-56 78,-125 78,-203 0,-44 -8,-86 -27,-126 -18,-38 -42,-69 -75,-94 -24,-18 -52,-30 -81,-37 -40,-10 -85,-12 -126,-12 -9,0 -18,0 -27,1 -10,0 -20,1 -30,1l-68 0zm0 -94l191 0c53,0 109,-10 149,-48 38,-37 49,-91 49,-143 0,-59 -11,-125 -56,-166 -49,-43 -129,-52 -190,-52 -10,0 -20,0 -29,1 -6,0 -12,1 -19,1l-1 0 -94 0 0 407zm1097 101l246 0 -122 -364 -124 364zm1088 66l104 0c74,0 144,-18 196,-72 52,-55 70,-129 70,-203 0,-77 -17,-158 -73,-215 -55,-56 -131,-73 -207,-73 -10,0 -21,-1 -31,-1 -12,-1 -24,-1 -37,-1 -7,0 -15,0 -22,0l0 565zm1137 -73l0 346c0,45 3,126 33,162 27,33 82,39 121,39 77,0 147,-22 202,-77 55,-56 78,-125 78,-203 0,-44 -9,-86 -27,-126 -18,-38 -43,-69 -75,-94 -24,-18 -52,-30 -81,-37 -40,-10 -85,-12 -126,-12 -9,0 -18,0 -27,1 -10,0 -21,1 -31,1l-67 0zm0 -94l191 0c53,0 109,-10 148,-48 39,-37 50,-91 50,-143 0,-59 -11,-125 -57,-166 -48,-43 -128,-52 -190,-52 -9,0 -19,0 -29,1 -6,0 -12,1 -18,1l-1 0 -94 0 0 407zm2713 167l104 0c73,0 143,-18 195,-72 53,-55 70,-129 70,-203 0,-77 -16,-158 -72,-215 -55,-56 -131,-73 -207,-73 -11,0 -21,-1 -31,-1 -12,-1 -25,-1 -37,-1 -7,0 -15,0 -22,0l0 565zm1573 -588l0 950c0,29 4,69 30,88 29,22 107,24 143,24 138,0 269,-36 365,-139 100,-108 130,-254 130,-397 0,-145 -34,-289 -142,-391 -112,-106 -269,-135 -417,-135l-109 0zm2790 588l104 0c73,0 143,-18 195,-72 53,-55 70,-129 70,-203 0,-77 -16,-158 -72,-215 -55,-56 -131,-73 -208,-73 -10,0 -20,-1 -30,-1 -13,-1 -25,-1 -37,-1 -7,0 -15,0 -22,0l0 565z"/>
   <path fill="black" class="fil0" d="M13314 5594l0 -1 21 0c13,0 32,-1 42,-11 10,-10 11,-28 11,-42l0 -403c0,-7 0,-25 -6,-31 -8,-6 -41,-12 -51,-14l-10 -1 0 -40 145 0 372 426 0 -329c0,-14 -1,-32 -12,-42 -10,-10 -27,-12 -41,-12l-21 0 0 -43 216 0 0 43 -20 0c-14,0 -32,2 -42,12 -10,10 -12,28 -12,42l0 496 -41 0 -409 -466 0 362c0,14 2,32 12,42 10,10 29,11 42,11l20 0 0 44 -467 0 2 -43 12 0c0,0 1,0 2,0l1 0 0 0c8,1 18,2 26,2 11,0 28,-1 37,-6 6,-4 8,-9 8,-15 0,-3 -2,-7 -2,-10 -2,-7 -4,-13 -6,-20l-53 -156 -153 0 -55 156c-2,6 -4,12 -5,18 -1,3 -1,7 -2,11 0,6 2,12 8,16 8,5 23,6 32,6 8,0 16,-1 24,-2l0 0 1 0c1,0 1,0 2,0l12 0 0 43 -214 0 0 -43 12 0c12,0 30,-1 40,-9 12,-9 24,-40 29,-53l150 -432c2,-6 4,-12 6,-18 1,-4 2,-8 2,-12 0,-2 -1,-4 -1,-6 -1,-3 -2,-5 -3,-8l-8 -17 100 0 168 488c5,15 17,47 28,57 9,8 20,10 31,10l20 0zm-6387 1l4 0c12,0 31,-1 39,-11 9,-11 12,-41 13,-55l23 -377 0 -1c1,-2 1,-4 1,-7 0,-3 0,-6 0,-9 0,-9 -1,-23 -7,-30 -7,-7 -25,-11 -34,-13l-10 -1 0 -40 138 0 195 445 199 -445 137 0 0 40 -11 2c-9,1 -29,4 -37,10 -5,3 -6,10 -6,16 0,4 0,8 0,12 1,6 1,11 1,17l25 371c0,12 4,57 13,67 7,8 27,9 37,9l16 0 0 42 -227 0 0 -42 20 0c13,0 31,-2 41,-12 10,-11 12,-29 12,-43 0,-3 0,-6 0,-9 0,-2 0,-4 0,-6l0 0 -22 -320 -189 427 -40 6 -194 -433 -18 325c0,3 0,5 -1,8 0,2 0,4 0,6 0,11 1,31 10,40 9,9 28,11 39,11l12 0 0 42 -430 0 2 -43 11 0c1,0 2,0 2,0l1 0 0 0c9,1 18,2 26,2 11,0 28,-1 38,-6 5,-4 7,-9 7,-15 0,-3 -1,-7 -2,-10 -1,-7 -3,-13 -5,-20l-54 -156 -153 0 -55 156c-2,6 -3,12 -5,18 0,3 -1,7 -1,11 0,6 1,12 7,16 8,5 23,6 33,6 7,0 16,-1 23,-2l1 0 0 0c1,0 2,0 3,0l12 0 0 43 -215 0 0 -43 12 0c12,0 30,-1 41,-9 12,-9 24,-40 28,-53l150 -432c3,-6 5,-12 6,-18 1,-4 2,-8 2,-12 0,-2 0,-4 -1,-6 0,-3 -1,-5 -2,-8l-9 -17 100 0 168 488c5,15 17,47 29,57 8,8 19,10 30,10l21 0 0 1zm-663 -535c4,-1 8,-3 12,-5l15 -6 18 144 -38 2 -3 -8c-11,-28 -26,-56 -49,-75 -20,-17 -42,-25 -67,-25 -22,0 -43,6 -59,21 -16,14 -23,31 -23,52 0,47 71,101 105,124l3 2 0 0c4,3 7,5 11,8 34,23 74,52 101,84 13,14 22,30 29,48 7,18 10,37 10,56 0,48 -14,91 -50,124 -39,33 -89,44 -138,44 -21,0 -43,-5 -63,-11 -11,-3 -32,-10 -43,-10 -5,0 -10,0 -14,1 -5,1 -9,2 -13,3l-14 5 -21 -166 40 6 2 8c9,32 24,64 49,86 22,20 48,29 78,29 28,0 52,-8 73,-27 18,-17 29,-37 29,-63 0,-49 -63,-98 -99,-124 -4,-2 -8,-6 -12,-8l0 0 -6 -4c-32,-23 -101,-73 -121,-107 -8,-13 -14,-27 -18,-42 -4,-14 -6,-29 -6,-43 0,-42 14,-77 46,-105 33,-29 75,-39 119,-39 23,0 47,5 69,12 9,2 18,5 27,8 3,0 9,2 12,2 3,0 6,0 9,-1zm1681 -9l0 43 -21 0c-14,0 -31,2 -41,12 -11,10 -12,29 -12,42l0 237c0,27 1,58 7,83 5,19 12,36 24,51 15,20 35,35 58,45 27,11 56,16 85,16 30,0 61,-5 89,-17 24,-10 45,-24 60,-45 11,-16 17,-33 21,-52 6,-29 7,-64 7,-94l0 -224c0,-13 -2,-32 -12,-42 -11,-10 -29,-12 -42,-12l-21 0 0 -43 213 0 0 43 -21 0c-13,0 -32,2 -42,12 -10,10 -12,29 -12,42l0 237c0,70 -12,149 -63,201 -50,51 -126,64 -195,64 -69,0 -140,-14 -189,-66 -50,-53 -63,-129 -63,-199l0 -237c0,-13 -1,-32 -11,-42 -10,-10 -29,-12 -42,-12l-21 0 0 -43 244 0zm627 57l0 198 96 0c13,0 49,-1 59,-10 10,-10 14,-34 16,-47l1 -10 37 0 0 196 -39 0 -1 -10c-1,-13 -4,-42 -13,-52 -9,-9 -49,-10 -60,-10l-96 0 0 155c0,13 1,41 11,51 11,10 43,11 56,11l70 0c21,0 53,-3 70,-18 17,-16 26,-51 30,-73l2 -10 40 0 -14 158 -462 0 0 -44 27 0c17,0 46,-1 59,-12 12,-9 14,-29 14,-43l0 -390c0,-13 -1,-32 -12,-42 -10,-10 -28,-12 -41,-12l-21 0 0 -43 415 0 7 151 -42 0 -2 -10c-2,-19 -8,-56 -22,-69 -14,-14 -59,-15 -77,-15l-108 0zm495 429c0,7 0,30 6,35 5,6 32,6 38,6l84 0c11,0 28,0 38,-4 9,-4 17,-10 25,-17 8,-7 15,-16 22,-25 12,-15 23,-31 34,-46l4 -6 42 3 -73 154 -391 0 0 -44 20 0c14,0 32,-1 42,-11 10,-10 12,-28 12,-41l0 -393c0,-13 -2,-32 -12,-42 -10,-10 -28,-12 -42,-12l-20 0 0 -43 264 0 0 45 -13 -2c-3,0 -6,0 -8,0 -5,0 -9,-1 -14,-1 -14,0 -35,2 -45,13 -11,10 -13,28 -13,42l0 389zm472 -429l0 198 95 0c13,0 50,-1 60,-10 10,-10 14,-34 15,-47l1 -10 38 0 0 196 -40 0 0 -10c-2,-13 -5,-42 -14,-52 -8,-9 -48,-10 -60,-10l-95 0 0 155c0,13 1,41 11,51 11,10 42,11 56,11l69 0c22,0 53,-3 70,-18 18,-16 26,-51 31,-73l1 -10 41 0 -14 158 -463 0 0 -44 28 0c16,0 45,-1 59,-12 12,-9 14,-29 14,-43l0 -390c0,-13 -2,-32 -12,-42 -10,-10 -28,-12 -42,-12l-20 0 0 -43 415 0 7 151 -43 0 -1 -10c-2,-19 -8,-56 -22,-69 -15,-14 -60,-15 -78,-15l-107 0zm536 529l0 -43 20 0c14,0 32,-2 42,-12 10,-10 12,-28 12,-42l0 -392c0,-13 -2,-32 -12,-42 -10,-10 -28,-12 -42,-12l-20 0 0 -42 11 -1c51,-2 101,-5 151,-7 25,-1 49,-2 74,-2 49,0 104,2 152,14 37,9 72,24 102,46 34,26 61,59 79,98 19,41 27,84 27,129 0,45 -8,90 -27,131 -19,41 -47,75 -82,104 -31,26 -65,44 -104,56 -45,13 -97,17 -144,17l-239 0zm736 -490c-1,0 -2,0 -2,1 -5,0 -10,1 -15,1 -14,0 -30,-3 -41,-14 -11,-11 -14,-26 -14,-41 0,-15 5,-29 16,-39 12,-11 26,-16 42,-16 21,0 38,9 50,26 14,18 18,40 18,62 0,32 -8,62 -26,89 -18,27 -43,46 -73,59l-11 4 -15 -40 9 -5c19,-9 34,-22 46,-38 9,-15 16,-30 16,-48 0,0 0,0 0,-1zm428 242l-153 0 -55 156c-2,6 -4,12 -5,18 -1,3 -1,7 -2,11 0,6 2,12 8,16 8,5 23,6 32,6 8,0 16,-1 24,-2l0 0 1 0c1,0 1,0 2,0l12 0 0 43 -214 0 0 -43 11 0c13,0 31,-1 41,-9 12,-9 24,-40 29,-53l150 -432c2,-6 4,-12 6,-18 1,-4 2,-8 2,-12 0,-2 -1,-4 -1,-6 -1,-3 -2,-5 -3,-8l-8 -17 100 0 168 488c5,15 17,47 28,57 9,8 20,10 31,10l20 0 0 43 -251 0 2 -43 12 0c0,0 1,0 2,0l0 0 1 0c8,1 18,2 26,2 11,0 28,-1 37,-6 6,-4 8,-9 8,-15 0,-3 -2,-7 -2,-10 -2,-7 -4,-13 -6,-20l-53 -156zm638 183l0 -101c0,-13 -2,-38 -13,-48 -13,-10 -54,-12 -71,-12l-11 0 0 -43 249 0 -1 42 -10 1c-11,1 -31,5 -38,14 -8,8 -9,27 -9,38l0 127 -7 4c-34,18 -69,32 -107,42 -37,10 -75,14 -114,14 -35,0 -71,-5 -105,-17 -32,-12 -61,-29 -86,-52 -31,-29 -54,-63 -70,-102 -17,-40 -25,-83 -25,-127 0,-41 8,-82 23,-120 15,-39 36,-74 65,-104 27,-29 59,-52 96,-67 37,-16 77,-24 117,-24 32,0 66,7 96,16 15,4 30,7 45,10 7,2 16,4 24,4 5,0 9,-1 14,-1 5,0 10,-1 15,-2l14 -3 5 167 -45 1 -2 -9c-10,-38 -26,-76 -56,-102 -28,-24 -61,-33 -97,-33 -62,0 -111,24 -150,72 -44,53 -60,120 -60,189 0,66 14,134 58,186 39,48 91,68 152,68 21,0 41,-2 60,-8 16,-4 30,-11 44,-20zm723 -95l0 -329c0,-14 -2,-32 -12,-42 -10,-10 -28,-12 -42,-12l-20 0 0 -43 216 0 0 43 -21 0c-13,0 -31,2 -41,12 -10,10 -12,28 -12,42l0 496 -41 0 -409 -466 0 362c0,14 1,32 12,42 10,10 28,11 41,11l21 0 0 44 -216 0 0 -44 20 0c14,0 32,-1 42,-11 10,-10 12,-28 12,-42l0 -403c0,-7 -1,-25 -7,-31 -7,-6 -41,-12 -51,-14l-10 -1 0 -40 146 0 372 426zm1739 173c-39,0 -78,-6 -114,-19 -35,-13 -67,-31 -95,-56 -31,-28 -55,-61 -72,-99 -17,-39 -25,-79 -25,-121 0,-44 8,-86 25,-126 17,-39 41,-74 72,-105 28,-27 60,-49 97,-64 38,-15 77,-22 118,-22 39,0 77,7 114,20 36,13 68,31 96,56 31,28 55,61 72,99 17,39 24,80 24,122 0,44 -8,86 -25,126 -17,40 -42,76 -73,106 -29,27 -61,48 -98,63 -37,14 -76,20 -116,20zm-7770 -319l112 0 -55 -161 -57 161zm3677 -242l0 448c0,13 1,31 13,40 14,10 52,11 68,11 66,0 130,-17 176,-66 48,-50 62,-119 62,-186 0,-69 -16,-136 -68,-184 -54,-49 -130,-63 -201,-63l-50 0zm860 242l112 0 -56 -161 -56 161zm1851 0l112 0 -56 -161 -56 161zm1392 269c57,0 105,-21 142,-65 41,-49 56,-111 56,-174 0,-33 -4,-67 -13,-99 -8,-29 -21,-56 -38,-81 -20,-28 -45,-52 -75,-69 -27,-16 -56,-24 -88,-24 -57,0 -104,21 -142,64 -41,47 -57,105 -57,167 0,35 5,70 14,104 8,29 20,58 38,84 19,28 43,52 73,69 28,16 58,24 90,24z"/>
   <rect fill="black" class="fil0" x="2184" y="2404" width="16219.3" height="91.8428"/>
   <rect fill="black" class="fil0" x="2184" y="4633" width="16219.3" height="91.8428"/>
  </g>
 </g>
</svg>